<?xml version="1.0" standalone="no"?>
<!DOCTYPE svg PUBLIC "-//W3C//DTD SVG 20010904//EN"
 "http://www.w3.org/TR/2001/REC-SVG-20010904/DTD/svg10.dtd">
<svg version="1.0" xmlns="http://www.w3.org/2000/svg"
 width="4746.000000pt" height="4746.000000pt" viewBox="0 0 4746.000000 4746.000000"
 preserveAspectRatio="xMidYMid meet">
<metadata>
Created by potrace 1.11, written by Peter Selinger 2001-2013
</metadata>
<g transform="translate(0.000000,4746.000000) scale(0.100000,-0.100000)"
fill="#000000" stroke="none">
<path d="M22620 33539 c-2177 -41 -4359 -210 -6420 -495 -6108 -845 -11169
-2705 -13925 -5119 -596 -521 -1060 -1040 -1430 -1600 -472 -712 -748 -1456
-820 -2205 -18 -179 -20 -582 -5 -745 55 -589 212 -1123 495 -1680 499 -983
1372 -1938 2569 -2811 3243 -2362 8704 -4069 15051 -4703 1266 -127 2394 -200
3925 -253 498 -18 2842 -18 3340 0 494 17 1016 39 1360 57 6391 337 12178
1744 16040 3898 1714 956 2997 2039 3775 3185 466 688 745 1388 846 2127 29
213 37 686 15 915 -51 539 -194 1037 -446 1556 -385 795 -974 1532 -1805 2259
-2756 2414 -7817 4274 -13925 5119 -2757 382 -5713 551 -8640 495z m9735
-4604 c116 -86 177 -154 195 -215 12 -41 -8 -91 -54 -140 -34 -35 -72 -89
-212 -295 -40 -60 -102 -148 -136 -194 l-63 -84 53 -53 54 -53 -7 -58 c-3 -32
-9 -342 -13 -689 l-7 -631 -30 -48 c-16 -26 -42 -57 -56 -68 -56 -41 -173 -10
-226 60 -47 62 -53 107 -43 370 31 791 31 821 20 861 l-11 41 -107 -86 c-140
-112 -272 -199 -425 -278 -68 -36 -127 -65 -130 -65 -4 0 -11 9 -17 21 -11 19
1 34 117 152 329 337 687 818 852 1144 94 187 111 278 63 343 l-20 27 20 21
21 21 46 -26 c25 -14 78 -50 116 -78z m-2202 35 c182 -59 278 -124 293 -197 5
-27 0 -41 -29 -80 -23 -33 -51 -99 -87 -206 -28 -87 -50 -160 -47 -163 6 -6
94 24 269 92 158 61 192 77 227 110 38 36 65 39 105 14 48 -29 166 -157 183
-200 20 -47 12 -114 -18 -147 -35 -36 -64 -49 -191 -82 -63 -17 -127 -35 -142
-41 l-28 -10 46 -45 c54 -52 59 -86 22 -149 -13 -23 -33 -88 -45 -146 -48
-230 -144 -515 -239 -705 -105 -212 -265 -446 -400 -587 -54 -55 -56 -56 -77
-40 l-23 17 29 56 c147 293 324 931 353 1279 3 36 8 97 11 137 l6 72 -75 -34
c-83 -39 -111 -42 -143 -20 -21 15 -23 14 -42 -23 -63 -123 -287 -417 -410
-537 l-51 -49 -21 21 -22 21 45 89 c129 249 271 697 352 1103 31 155 49 321
40 363 -7 36 -31 67 -51 67 -16 0 -16 2 -1 35 6 14 17 25 25 25 8 0 69 -18
136 -40z m-735 -109 c67 -60 131 -120 142 -134 32 -41 26 -72 -28 -130 -27
-29 -61 -74 -77 -102 -116 -202 -292 -431 -497 -646 -36 -38 -47 -69 -73 -198
-85 -428 -235 -753 -513 -1117 l-103 -135 -28 20 -28 20 39 83 c152 318 282
800 318 1178 19 194 6 292 -49 362 -15 19 -19 34 -15 57 4 17 9 31 11 31 3 0
41 -9 85 -21 86 -21 151 -51 207 -93 l34 -26 35 63 c85 151 234 467 239 505 6
41 5 42 -25 42 -81 0 -383 -138 -582 -266 -144 -91 -182 -98 -233 -40 -51 57
-109 224 -161 458 -2 10 6 24 20 33 24 15 26 15 58 -19 64 -69 93 -70 344 -15
103 22 276 58 384 80 223 44 214 42 288 86 30 18 62 33 71 33 8 0 70 -49 137
-109z m7787 -46 c46 -61 85 -117 87 -123 2 -7 -22 -28 -52 -47 l-55 -35 523 0
522 0 0 -210 0 -210 -100 0 -100 0 0 115 0 115 -920 0 -920 0 0 -115 0 -115
-100 0 -100 0 0 210 0 210 551 0 550 0 -47 68 c-26 37 -65 88 -86 114 l-39 47
38 24 c21 13 60 38 87 55 39 25 52 29 64 20 7 -7 51 -62 97 -123z m3285 -790
l0 -785 165 0 165 0 0 -90 0 -90 -1212 2 -1213 3 0 85 0 85 168 3 167 2 0 785
0 785 880 0 880 0 0 -785z m2670 450 l0 -315 -95 0 -95 0 0 30 0 30 -813 0
-814 0 -7 -267 c-7 -299 -18 -446 -46 -638 -38 -268 -115 -542 -202 -723 l-43
-89 -74 79 -74 78 33 83 c76 191 117 335 155 541 47 255 55 404 55 978 l0 528
1010 0 1010 0 0 -315z m-8585 -155 c239 -51 434 -168 564 -339 149 -197 201
-369 180 -605 -12 -138 -40 -243 -96 -356 -40 -82 -60 -108 -142 -190 -101
-100 -161 -140 -288 -195 -160 -69 -334 -105 -584 -121 l-106 -6 -11 30 -10
30 66 17 c285 71 552 273 686 517 42 75 81 185 96 269 16 87 13 274 -5 343
-63 240 -294 431 -548 453 l-68 6 30 -48 c35 -55 37 -79 20 -233 -26 -241 -95
-474 -215 -722 -195 -402 -375 -561 -603 -529 -118 17 -210 79 -281 189 -124
193 -146 549 -50 811 129 355 483 638 875 699 100 15 376 4 490 -20z m3415
-200 l0 -90 -442 0 -443 -1 -66 -60 -67 -60 97 -97 c53 -53 119 -131 146 -173
l50 -77 110 55 c148 75 263 139 428 240 76 47 142 81 146 77 13 -15 97 -128
104 -140 7 -11 -102 -77 -325 -198 -49 -26 -88 -50 -88 -53 0 -3 19 -41 41
-83 130 -244 360 -444 637 -556 22 -9 22 -10 5 -29 -10 -11 -43 -51 -72 -90
-30 -38 -58 -74 -61 -78 -15 -17 -208 109 -327 213 -127 111 -263 291 -348
460 -20 41 -39 76 -40 78 -2 2 -33 -11 -70 -27 -59 -27 -67 -33 -62 -53 80
-327 69 -556 -34 -712 -72 -108 -200 -141 -503 -129 l-163 6 -18 99 c-9 55
-15 101 -13 103 3 3 49 0 104 -5 153 -15 308 -13 351 5 110 46 155 197 123
419 l-12 88 -52 -49 c-193 -187 -520 -389 -836 -519 -116 -47 -246 -94 -262
-94 -5 0 -17 20 -28 44 -10 24 -30 62 -44 84 l-25 40 102 32 c401 127 716 310
999 579 l77 73 -24 47 c-13 25 -30 55 -39 66 -14 19 -16 19 -63 -26 -179 -171
-435 -329 -713 -441 -84 -34 -243 -89 -245 -85 -1 1 -20 39 -43 85 -29 57 -38
84 -29 87 6 2 66 22 132 43 149 49 338 134 462 207 100 60 263 186 328 254
l40 42 -45 39 c-43 37 -46 38 -65 21 -93 -81 -413 -238 -665 -326 -96 -33
-106 -35 -115 -19 -5 9 -31 49 -57 89 l-46 73 71 18 c289 70 580 200 774 347
l81 62 -304 3 -304 2 0 90 0 90 875 0 875 0 0 -90z m5220 -145 l0 -85 -475 0
-475 0 -98 -82 c-53 -46 -141 -116 -195 -157 -53 -41 -97 -75 -97 -76 0 -4
862 34 866 38 2 2 -31 39 -73 81 l-77 78 29 25 c17 13 47 38 67 54 l37 30 118
-109 c65 -61 170 -163 233 -227 l115 -116 -40 -36 c-22 -19 -57 -48 -77 -64
l-36 -29 -40 42 c-21 24 -53 58 -69 77 l-30 34 -389 -17 c-214 -9 -492 -24
-619 -33 -126 -9 -245 -17 -264 -17 -34 -1 -35 0 -72 84 -36 84 -37 85 -15 94
111 46 254 143 414 280 l54 46 -276 0 -276 0 0 85 0 85 880 0 880 0 0 -85z
m-780 -695 l0 -90 363 -2 362 -3 3 -82 3 -83 -363 -2 -363 -3 -3 -117 -3 -118
446 0 445 0 0 -85 0 -85 -980 0 -980 0 0 85 0 85 440 0 440 0 0 120 0 120
-360 0 -360 0 0 85 0 85 360 0 360 0 0 90 0 90 95 0 95 0 0 -90z m-3105 -344
c30 -41 55 -79 55 -84 0 -5 -21 -19 -47 -30 -27 -11 -131 -56 -233 -100 -191
-82 -553 -222 -574 -222 -12 0 -104 176 -95 183 2 1 63 22 134 46 168 56 365
134 546 215 79 36 147 65 151 65 5 1 33 -33 63 -73z m920 -41 c337 -111 535
-184 535 -196 0 -24 -92 -190 -103 -186 -149 63 -376 150 -537 206 -113 40
-233 82 -267 94 l-62 22 52 82 c47 74 54 82 77 76 14 -3 151 -48 305 -98z
m3182 -679 c1 -1 -4 -26 -12 -56 -36 -139 -66 -408 -87 -795 -10 -168 -12
-487 -9 -1190 7 -1523 7 -2344 -3 -3160 -8 -748 -3 -1101 24 -1480 12 -170 46
-471 65 -580 8 -44 15 -83 15 -87 0 -5 -1082 -8 -2405 -8 l-2405 0 0 33 c0 17
14 138 31 267 27 211 32 279 41 660 15 664 16 4893 0 5285 -22 573 -47 900
-78 1048 -8 38 -14 71 -14 73 0 5 4831 -6 4837 -10z m-9414 -56 l3337 0 0
-1006 0 -1006 -27 6 c-132 28 -815 65 -1613 86 -1208 33 -2566 17 -2614 -30
-4 -4 -5 -217 -1 -474 l8 -466 1738 0 1739 0 0 -785 0 -785 -1745 0 -1745 0 0
-478 0 -479 1428 -7 c785 -3 1612 -6 1837 -7 l410 0 283 50 c155 28 287 51
292 51 12 0 13 -350 3 -1332 l-6 -698 -4289 0 -4288 0 0 48 c-1 26 16 1569 37
3429 41 3696 41 3514 -18 3733 -17 63 -34 126 -37 139 l-5 24 969 -6 c533 -4
2471 -7 4307 -7z m-21130 -119 c18 -231 140 -608 434 -1341 96 -239 185 -462
197 -495 13 -33 154 -409 313 -835 935 -2491 1477 -3857 1748 -4403 41 -81 84
-161 95 -178 l22 -30 -1919 6 c-1055 3 -2103 8 -2329 11 l-411 6 -7 82 c-15
178 -68 362 -184 636 -36 85 -86 214 -111 285 l-46 130 -1321 3 -1321 2 -42
-39 c-47 -44 -107 -163 -141 -281 -12 -41 -47 -154 -77 -250 -30 -96 -58 -188
-63 -205 -19 -62 -40 -201 -47 -296 l-6 -99 -1829 0 c-1318 0 -1828 3 -1828
11 0 15 46 98 103 186 26 39 65 107 86 150 22 43 171 438 331 878 160 440 391
1068 512 1395 863 2331 1089 2957 1344 3730 151 454 253 815 279 983 l6 37
3103 0 3103 0 6 -79z m7744 55 c1 0 -5 -26 -13 -56 -39 -150 -77 -592 -94
-1115 -19 -563 -9 -1808 16 -2025 l6 -55 40 45 c64 73 189 232 248 316 65 92
338 445 566 729 755 944 1072 1394 1304 1852 42 83 92 190 110 236 l32 84
2307 -5 c1268 -2 2308 -6 2310 -8 9 -8 -55 -66 -112 -102 -51 -32 -210 -212
-1139 -1297 -594 -693 -1112 -1298 -1151 -1344 -40 -47 -104 -132 -143 -189
l-71 -104 49 -86 c108 -188 205 -337 417 -642 74 -107 570 -852 1101 -1655
531 -803 999 -1505 1040 -1560 40 -55 111 -137 157 -182 74 -73 143 -162 143
-185 0 -4 -1196 -8 -2658 -8 l-2657 0 -19 53 c-142 402 -201 544 -303 722 -72
126 -1302 2000 -1442 2197 -112 157 -127 175 -133 153 -27 -103 -40 -1412 -18
-1960 20 -527 54 -925 96 -1137 l6 -28 -2216 0 c-1219 0 -2216 4 -2216 8 0 5
4 33 10 63 5 30 19 135 30 234 64 573 78 1086 59 2190 -16 965 -16 1084 -5
2565 6 792 5 1168 -3 1360 -18 424 -42 673 -82 855 -10 49 -19 90 -19 91 0 2
4444 -8 4447 -10z"/>
<path d="M38930 28520 l0 -110 680 0 680 0 0 110 0 110 -680 0 -680 0 0 -110z"/>
<path d="M38930 28130 l0 -110 680 0 680 0 0 110 0 110 -680 0 -680 0 0 -110z"/>
<path d="M38930 27740 l0 -110 680 0 680 0 0 110 0 110 -680 0 -680 0 0 -110z"/>
<path d="M38930 27350 l0 -110 680 0 680 0 0 110 0 110 -680 0 -680 0 0 -110z"/>
<path d="M41340 28505 l0 -115 815 0 815 0 0 115 0 115 -815 0 -815 0 0 -115z"/>
<path d="M33996 28115 c-256 -96 -465 -345 -522 -622 -21 -97 -15 -285 11
-355 45 -125 145 -129 243 -10 140 169 239 391 326 725 32 122 53 274 40 287
-5 5 -44 -4 -98 -25z"/>
<path d="M8932 22518 c-200 -566 -362 -1031 -360 -1034 3 -2 340 -3 749 -2
l744 3 -382 1025 c-211 564 -384 1028 -385 1031 -2 4 -167 -456 -366 -1023z"/>
</g>
</svg>
